<svg width="358px" height="89px" viewBox="0 0 358 89" version="1.1" xmlns="http://www.w3.org/2000/svg" xmlns:xlink="http://www.w3.org/1999/xlink">
    <!-- Generator: Sketch 48.2 (47327) - http://www.bohemiancoding.com/sketch -->
    <desc>Created with Sketch.</desc>
    <defs>
        <linearGradient x1="5.61528974%" y1="0%" x2="91.1711955%" y2="100%" id="linearGradient-1">
            <stop stop-color="#7F0261" offset="0%"></stop>
            <stop stop-color="#F01263" offset="100%"></stop>
        </linearGradient>
    </defs>
    <g id="Page-1" stroke="none" stroke-width="1" fill="none" fill-rule="evenodd">
        <g id="Landing_Desktop" transform="translate(-103.000000, -52.000000)">
            <g id="Group-7" transform="translate(103.000000, 52.000000)">
                <text id="source" font-family="Montserrat-Regular, Montserrat" font-size="80" font-weight="normal" fill="#403F3F">
                    <tspan x="99" y="80">source</tspan>
                </text>
                <path d="M44.5,89 C37.3122171,89 22.4788838,89 0,89 C6.58732328e-15,68.5299981 9.88098492e-15,53.6966647 9.88098492e-15,44.5 C9.88098492e-15,36.684685 6.58732328e-15,21.8513517 0,0 C21.0975341,2.67610008e-14 35.9308674,4.01415012e-14 44.5,4.01415012e-14 C69.0766714,4.01415012e-14 89,19.9233286 89,44.5 C89,69.0766714 69.0766714,89 44.5,89 Z M44,70.5 C57.254834,70.5 68,58.9713323 68,44.75 C68,30.5286677 57.254834,19 44,19 C39.3784454,19 31.3784454,19 20,19 C20,31.6443215 20,40.2276548 20,44.75 C20,50.0716655 20,58.6549989 20,70.5 C32.123443,70.5 40.123443,70.5 44,70.5 Z" id="Combined-Shape" fill="url(#linearGradient-1)"></path>
            </g>
        </g>
    </g>
</svg>